<?xml version="1.0" encoding="UTF-8"?>
<svg xmlns="http://www.w3.org/2000/svg" width="20px"
     height="20px" viewBox="0 0 20 20" version="1.1">
    <g id="surface1">
        <path style=" stroke:none;fill-rule:nonzero;fill:rgb(0%,0%,0%);fill-opacity:1;"
              d="M 3.75 17.5 C 3.417969 17.5 3.125 17.375 2.875 17.125 C 2.625 16.875 2.5 16.582031 2.5 16.25 L 2.5 3.75 C 2.5 3.417969 2.625 3.125 2.875 2.875 C 3.125 2.625 3.417969 2.5 3.75 2.5 L 9.355469 2.5 C 9.53125 2.5 9.679688 2.558594 9.800781 2.679688 C 9.917969 2.800781 9.980469 2.949219 9.980469 3.128906 C 9.980469 3.308594 9.917969 3.453125 9.800781 3.574219 C 9.679688 3.691406 9.53125 3.75 9.355469 3.75 L 3.75 3.75 L 3.75 16.25 L 9.355469 16.25 C 9.53125 16.25 9.679688 16.308594 9.800781 16.429688 C 9.917969 16.550781 9.980469 16.699219 9.980469 16.878906 C 9.980469 17.058594 9.917969 17.203125 9.800781 17.324219 C 9.679688 17.441406 9.53125 17.5 9.355469 17.5 Z M 15.105469 10.625 L 8.125 10.625 C 7.949219 10.625 7.800781 10.566406 7.679688 10.445312 C 7.558594 10.324219 7.5 10.175781 7.5 9.996094 C 7.5 9.816406 7.558594 9.671875 7.679688 9.550781 C 7.800781 9.433594 7.949219 9.375 8.125 9.375 L 15.0625 9.375 L 13.375 7.6875 C 13.25 7.5625 13.191406 7.417969 13.199219 7.25 C 13.203125 7.082031 13.269531 6.9375 13.394531 6.8125 C 13.519531 6.6875 13.671875 6.625 13.84375 6.625 C 14.015625 6.625 14.167969 6.6875 14.292969 6.8125 L 17.0625 9.582031 C 17.1875 9.707031 17.25 9.855469 17.25 10.019531 C 17.25 10.1875 17.1875 10.332031 17.0625 10.457031 L 14.3125 13.207031 C 14.191406 13.332031 14.046875 13.390625 13.878906 13.386719 C 13.710938 13.378906 13.558594 13.3125 13.429688 13.1875 C 13.308594 13.0625 13.25 12.914062 13.25 12.738281 C 13.25 12.566406 13.3125 12.417969 13.4375 12.292969 Z M 15.105469 10.625 "/>
    </g>
</svg>
