<?xml version="1.0" encoding="UTF-8"?>
<svg xmlns="http://www.w3.org/2000/svg" width="20px"
     height="20px" viewBox="0 0 20 20" version="1.1">
    <g id="surface1">
        <path style=" stroke:none;fill-rule:nonzero;fill:rgb(0%,0%,0%);fill-opacity:1;"
              d="M 4.582031 16.25 L 7.707031 16.25 L 7.707031 11.667969 C 7.707031 11.488281 7.769531 11.339844 7.886719 11.222656 C 8.007812 11.101562 8.15625 11.042969 8.332031 11.042969 L 11.667969 11.042969 C 11.84375 11.042969 11.992188 11.101562 12.113281 11.222656 C 12.230469 11.339844 12.292969 11.488281 12.292969 11.667969 L 12.292969 16.25 L 15.417969 16.25 L 15.417969 8.125 L 10 4.0625 L 4.582031 8.125 Z M 3.332031 16.25 L 3.332031 8.125 C 3.332031 7.925781 3.378906 7.738281 3.464844 7.5625 C 3.554688 7.386719 3.675781 7.238281 3.832031 7.125 L 9.25 3.0625 C 9.46875 2.894531 9.714844 2.8125 9.996094 2.8125 C 10.277344 2.8125 10.527344 2.894531 10.75 3.0625 L 16.167969 7.125 C 16.324219 7.238281 16.445312 7.386719 16.535156 7.5625 C 16.621094 7.738281 16.667969 7.925781 16.667969 8.125 L 16.667969 16.25 C 16.667969 16.59375 16.542969 16.886719 16.300781 17.132812 C 16.054688 17.378906 15.761719 17.5 15.417969 17.5 L 11.667969 17.5 C 11.488281 17.5 11.339844 17.441406 11.222656 17.320312 C 11.101562 17.199219 11.042969 17.050781 11.042969 16.875 L 11.042969 12.292969 L 8.957031 12.292969 L 8.957031 16.875 C 8.957031 17.050781 8.898438 17.199219 8.777344 17.320312 C 8.660156 17.441406 8.511719 17.5 8.332031 17.5 L 4.582031 17.5 C 4.238281 17.5 3.945312 17.378906 3.699219 17.132812 C 3.457031 16.886719 3.332031 16.59375 3.332031 16.25 Z M 10 10.144531 Z M 10 10.144531 "/>
    </g>
</svg>
